<?xml version="1.0" standalone="no"?>
<!DOCTYPE svg PUBLIC "-//W3C//DTD SVG 20010904//EN"
 "http://www.w3.org/TR/2001/REC-SVG-20010904/DTD/svg10.dtd">
<svg version="1.0" xmlns="http://www.w3.org/2000/svg"
 width="200.000000pt" height="200.000000pt" viewBox="0 0 200.000000 200.000000"
 preserveAspectRatio="xMidYMid meet">

<g transform="translate(0.000000,200.000000) scale(0.100000,-0.100000)"
fill="#000000" stroke="none">
<path d="M950 1887 c-28 -14 -38 -54 -20 -87 7 -14 21 -20 45 -20 18 0 36 4
39 9 3 4 -6 6 -19 3 -31 -5 -55 13 -55 43 0 31 24 48 57 42 26 -5 26 -4 8 9
-23 17 -24 17 -55 1z"/>
<path d="M819 1820 c-9 -33 -12 -60 -7 -60 4 0 8 6 8 14 0 20 53 28 63 10 5
-8 12 -12 17 -9 11 7 -41 105 -55 105 -6 0 -17 -27 -26 -60z m34 -11 c-24 -9
-26 -5 -18 22 7 22 8 22 22 4 12 -17 11 -20 -4 -26z"/>
<path d="M702 1843 c-14 -27 -4 -42 34 -49 19 -3 34 -12 34 -19 0 -17 -35 -29
-52 -19 -10 6 -10 4 -1 -6 21 -22 68 -1 68 30 0 20 -6 26 -30 30 -40 7 -46 37
-8 43 27 4 27 4 -4 6 -22 1 -35 -5 -41 -16z"/>
<path d="M572 1778 c-2 -39 -27 -54 -38 -23 -7 18 -24 20 -24 2 0 -17 48 -87
60 -87 6 0 5 11 -2 25 -14 31 -6 40 22 25 11 -6 29 -10 38 -8 13 3 9 8 -15 21
-24 13 -33 25 -36 49 -4 33 -4 33 -5 -4z"/>
<path d="M435 1714 c-25 -25 -16 -75 17 -93 25 -14 29 -14 55 5 15 12 29 30
31 40 2 13 -2 10 -13 -8 -17 -30 -41 -35 -69 -15 -27 20 -18 69 14 78 23 6 23
7 3 8 -12 1 -29 -6 -38 -15z"/>
<path d="M905 1710 c-3 -6 1 -7 9 -4 18 7 21 14 7 14 -6 0 -13 -4 -16 -10z"/>
<path d="M956 1711 c2 -3 40 -7 84 -10 46 -4 76 -3 70 3 -4 4 -42 9 -83 10
-42 0 -73 -1 -71 -3z"/>
<path d="M843 1703 c-18 -2 -33 -8 -33 -13 0 -5 -6 -7 -14 -4 -8 3 -17 1 -20
-5 -4 -6 -13 -8 -21 -4 -8 3 -15 -1 -15 -8 0 -7 -3 -10 -6 -6 -8 7 -57 -17
-100 -49 -17 -13 -35 -20 -39 -16 -5 4 -5 2 -2 -4 4 -7 -3 -14 -18 -18 -14 -4
-23 -10 -20 -15 2 -5 -7 -12 -21 -15 -21 -6 -24 -9 -14 -21 12 -14 7 -20 -14
-16 -11 2 -43 -27 -68 -62 -16 -22 -17 -31 -8 -42 9 -11 9 -15 1 -15 -6 0 -11
5 -11 11 0 8 -5 8 -15 -1 -12 -10 -13 -16 -4 -27 7 -7 9 -16 5 -20 -3 -3 -6
-1 -6 5 0 6 -6 9 -14 6 -12 -5 -24 -29 -62 -129 -4 -11 -6 -24 -5 -29 1 -4 -3
-14 -10 -22 -6 -8 -9 -23 -6 -34 3 -11 2 -20 -2 -20 -10 0 -14 -51 -12 -175 1
-152 0 -145 13 -190 6 -22 12 -44 12 -48 1 -4 6 -11 11 -15 6 -4 10 -11 10
-17 1 -32 19 -75 31 -75 8 0 14 -8 14 -18 0 -10 5 -23 12 -30 7 -7 8 -12 4
-12 -10 0 37 -65 70 -97 13 -13 27 -30 32 -39 6 -11 14 -14 23 -8 17 10 43 15
34 6 -4 -4 -11 -8 -16 -8 -5 -1 -12 -2 -16 -3 -3 0 4 -12 17 -26 12 -13 26
-22 30 -20 5 3 10 -2 13 -10 6 -14 114 -73 146 -80 9 -2 24 -6 34 -10 13 -5
16 -3 11 8 -3 9 -15 14 -29 13 -17 -2 -22 1 -17 12 4 12 0 14 -24 8 -18 -4
-24 -3 -16 2 10 7 3 16 -25 37 -21 16 -39 33 -41 37 -5 12 -36 9 -52 -5 -12
-10 -12 -9 -2 4 6 9 8 20 4 24 -4 5 -1 5 6 1 7 -4 -10 22 -37 58 -27 35 -52
74 -56 86 -3 11 -11 18 -16 15 -9 -6 -13 8 -10 34 2 7 -3 10 -9 6 -7 -4 -10
-1 -9 6 4 25 -13 69 -24 62 -7 -4 -8 0 -4 12 4 9 2 24 -5 33 -7 8 -11 16 -9
16 2 1 0 24 -4 51 -5 28 -7 58 -6 68 1 9 -1 17 -6 17 -10 0 -11 201 -1 216 5
7 8 23 7 35 0 31 10 78 22 105 6 11 9 24 8 30 -4 25 2 45 13 38 8 -5 9 -2 5 9
-3 10 -2 17 3 17 6 0 10 8 10 18 0 9 7 26 15 36 8 10 12 23 9 27 -3 5 0 9 7 9
6 0 9 8 6 19 -4 15 -1 18 12 14 9 -4 13 -3 9 2 -4 4 7 19 23 33 20 16 27 27
19 32 -8 5 -4 9 10 13 14 4 19 10 14 18 -4 7 -3 10 3 6 13 -8 36 17 25 28 -4
5 -1 5 6 1 15 -9 54 22 46 36 -3 5 0 8 7 7 21 -4 69 23 62 34 -3 6 -1 7 5 3 6
-4 23 1 37 10 14 9 25 13 25 10 0 -4 10 0 21 8 12 8 27 12 34 10 7 -3 16 0 20
5 3 6 11 8 17 5 7 -4 8 -2 4 4 -4 7 -8 11 -9 10 -1 0 -17 -3 -34 -5z m-133
-67 c0 -2 -9 -6 -20 -9 -11 -3 -18 -1 -14 4 5 9 34 13 34 5z m-79 -49 c-10 -9
-11 -8 -5 6 3 10 9 15 12 12 3 -3 0 -11 -7 -18z m-91 -101 c0 -3 -4 -8 -10
-11 -5 -3 -10 -1 -10 4 0 6 5 11 10 11 6 0 10 -2 10 -4z m-193 -248 c-3 -8 -6
-5 -6 6 -1 11 2 17 5 13 3 -3 4 -12 1 -19z m20 -140 c-3 -8 -6 -5 -6 6 -1 11
2 17 5 13 3 -3 4 -12 1 -19z m113 -624 c0 -8 -19 -13 -24 -6 -3 5 1 9 9 9 8 0
15 -2 15 -3z m184 -149 c11 -8 15 -15 9 -15 -7 0 -15 5 -18 11 -4 6 -14 8 -22
5 -8 -3 -11 -1 -8 4 8 13 16 12 39 -5z"/>
<path d="M1132 1698 c6 -18 25 -21 25 -3 0 8 -7 15 -14 15 -8 0 -13 -5 -11
-12z"/>
<path d="M1184 1681 c24 -27 72 -36 94 -19 16 12 16 11 2 -6 -13 -16 -12 -20
5 -32 11 -8 24 -13 31 -10 6 2 17 0 25 -6 11 -8 10 -8 -5 -4 -16 5 -17 4 -7
-8 7 -8 20 -12 28 -9 10 4 14 2 10 -4 -9 -14 17 -35 29 -25 5 4 6 3 2 -2 -10
-12 11 -38 25 -29 6 3 7 1 3 -5 -4 -7 -2 -12 4 -12 6 0 9 -4 6 -8 -3 -5 5 -19
17 -33 12 -13 23 -37 25 -54 5 -43 17 -50 41 -26 15 15 21 32 19 56 -1 19 -6
35 -11 35 -4 0 -6 4 -3 9 9 14 -5 42 -17 34 -6 -4 -8 0 -4 10 8 22 -104 107
-141 107 -22 0 -24 2 -12 11 12 8 8 10 -17 7 -19 -3 -31 0 -30 6 1 6 -8 11
-20 10 -13 0 -23 4 -23 9 0 5 -6 7 -14 4 -8 -3 -17 -1 -20 6 -3 9 -8 8 -15 -3
-7 -10 -11 -11 -11 -2 0 6 -7 12 -17 12 -15 0 -14 -2 1 -19z"/>
<path d="M340 1621 c0 -5 11 -33 24 -62 20 -44 25 -49 25 -28 1 31 24 54 46
46 8 -4 17 -2 20 2 2 5 -17 18 -44 30 -54 23 -71 26 -71 12z m56 -32 c3 -6 2
-15 -4 -21 -7 -7 -14 -3 -21 11 -10 17 -9 21 3 21 8 0 18 -5 22 -11z"/>
<path d="M265 1534 c-14 -15 -25 -30 -25 -33 1 -10 77 -61 91 -61 10 0 9 5 -3
16 -15 15 -15 19 -2 40 12 17 13 27 4 43 -15 28 -36 26 -65 -5z m51 -9 c4 -8
1 -22 -6 -30 -11 -14 -15 -14 -31 1 -14 13 -16 20 -8 31 15 17 38 17 45 -2z"/>
<path d="M174 1328 c-8 -12 74 -93 84 -83 3 3 1 10 -5 16 -14 14 4 59 24 59 7
0 13 5 13 10 0 14 -107 13 -116 -2z m66 -28 c0 -23 -10 -26 -28 -8 -18 18 -15
28 8 28 13 0 20 -7 20 -20z"/>
<path d="M146 1252 c-2 -4 -7 -25 -10 -47 -3 -22 -3 -32 0 -22 4 14 12 17 31
12 61 -15 83 -17 83 -7 0 5 -23 15 -50 22 -43 10 -50 15 -45 31 6 19 1 26 -9
11z"/>
<path d="M1025 1245 c-38 -7 -125 -21 -192 -31 -68 -9 -123 -21 -123 -25 0 -4
14 -7 30 -7 46 2 79 -21 91 -61 6 -23 9 -186 7 -451 l-3 -415 -25 2 c-24 3
-24 2 -5 -9 27 -15 35 -28 35 -56 0 -60 -55 -122 -110 -122 -11 0 -20 -4 -20
-10 0 -6 67 -10 180 -10 113 0 180 4 180 10 0 6 -9 10 -20 10 -32 0 -74 25
-87 52 -33 65 -24 98 25 91 23 -4 25 -3 9 7 -10 7 -24 9 -32 6 -7 -2 -16 2
-19 10 -6 15 -9 944 -3 944 1 0 40 7 87 15 168 30 261 13 335 -62 70 -69 99
-193 75 -315 -28 -142 -107 -218 -228 -218 -80 0 -138 33 -172 98 -17 35 -24
19 -10 -25 15 -47 43 -79 95 -106 33 -18 56 -22 130 -22 77 1 97 5 141 27 107
56 166 160 172 304 14 296 -190 434 -543 369z"/>
<path d="M145 1133 c48 -7 50 -19 6 -44 -23 -12 -41 -26 -41 -30 0 -10 40 -19
80 -18 26 1 29 3 10 6 -53 9 -55 14 -12 39 23 14 42 29 42 33 0 14 -28 21 -73
20 -34 -2 -36 -3 -12 -6z"/>
<path d="M1679 1077 c-73 -48 -87 -146 -30 -209 51 -57 155 -56 205 2 100 120
-46 293 -175 207z"/>
<path d="M127 1002 c-20 -22 -22 -61 -4 -86 21 -29 79 -18 96 18 12 25 11 31
-6 55 -25 32 -63 38 -86 13z m64 -12 c30 -16 25 -58 -8 -66 -48 -12 -84 36
-47 63 22 16 29 16 55 3z"/>
<path d="M220 863 c13 -28 -2 -62 -28 -64 -47 -3 -65 11 -59 48 2 12 0 20 -4
17 -5 -3 -9 -18 -9 -34 0 -54 64 -75 105 -34 19 20 19 45 -1 70 -14 18 -15 18
-4 -3z"/>
<path d="M1485 456 c-28 -28 -67 -65 -87 -81 -20 -16 -34 -33 -31 -38 3 -6 1
-7 -4 -4 -11 7 -97 -36 -88 -44 2 -3 -6 -6 -19 -7 -13 -1 -45 -11 -70 -22 -26
-11 -60 -20 -74 -21 -15 0 -36 -4 -47 -9 -13 -5 3 -7 45 -5 73 4 101 8 115 17
6 3 20 4 32 3 12 -1 19 3 16 8 -4 6 3 8 15 5 15 -4 22 -2 22 8 0 17 17 19 22
2 3 -9 10 -8 23 5 9 10 24 16 32 13 9 -4 11 -2 7 6 -5 8 -2 9 10 5 10 -4 19
-1 22 8 4 8 10 13 14 10 12 -7 41 6 35 15 -3 4 6 11 19 14 28 7 42 36 24 48
-9 6 -7 8 7 6 18 -3 20 3 21 50 1 29 -2 54 -5 56 -4 3 -29 -19 -56 -48z m26
-39 c-10 -9 -11 -8 -5 6 3 10 9 15 12 12 3 -3 0 -11 -7 -18z m-51 -27 c12 -8
9 -10 -10 -8 -16 2 -24 -2 -22 -10 1 -8 -2 -11 -8 -7 -8 5 -7 11 1 21 14 16
19 17 39 4z"/>
</g>
</svg>
